# xmcd
#
# Track frame offsets: 
#        150
#        10974
#        28175
#        44639
#        61671
#        80436
#        102535
#        117864
#        136556
#        155380
#        174837
#        189858
#        213052
#        231514
#        251010
#
# Disc length: 3765 seconds
#
# Revision: 0
# Processed by: cddbd v1.5.2PL0 Copyright (c) Steve Scherf et al.
# Submitted via: ExactAudioCopy v0.99pb4
#
DISCID=bc0eb30f
DTITLE=The Bluescruisers - Out Of Time
DYEAR=1999
DGENRE=Blues
TTITLE0=Lizzn'
TTITLE1=Well I've Tried
TTITLE2=Bad Feeling
TTITLE3=What It Means To You
TTITLE4=What A Man Got To Do
TTITLE5=Out Of Time
TTITLE6=Don't Be Afraid Of The Dark
TTITLE7=All The Love From You
TTITLE8=My Blues
TTITLE9=All Night Boogie
TTITLE10=Going On The Wrong Way
TTITLE11=No Job
TTITLE12=Back To The Roots
TTITLE13=Tiger Man
TTITLE14=Blame
EXTD=
EXTT0=
EXTT1=
EXTT2=
EXTT3=
EXTT4=
EXTT5=
EXTT6=
EXTT7=
EXTT8=
EXTT9=
EXTT10=
EXTT11=
EXTT12=
EXTT13=
EXTT14=
PLAYORDER=
